<mxfile host="Electron" modified="2023-11-02T21:40:26.428Z" agent="Mozilla/5.0 (X11; Linux x86_64) AppleWebKit/537.36 (KHTML, like Gecko) draw.io/22.0.3 Chrome/114.0.5735.289 Electron/25.8.4 Safari/537.36" etag="CFs0noCyQ6ej9mmFYSFN" version="22.0.3" type="device">
  <diagram id="GMIQnAu59TPRC3zZajlG" name="Page-1">
    <mxGraphModel dx="1434" dy="838" grid="1" gridSize="10" guides="1" tooltips="1" connect="1" arrows="1" fold="1" page="1" pageScale="1" pageWidth="850" pageHeight="1100" math="0" shadow="0">
      <root>
        <mxCell id="0" />
        <mxCell id="1" parent="0" />
        <mxCell id="rwV26TxV25w9a_nrWC0s-1" value="&lt;b&gt;&lt;font style=&quot;font-size: 15px;&quot;&gt;GET&lt;/font&gt;&lt;/b&gt;" style="shape=step;perimeter=stepPerimeter;whiteSpace=wrap;html=1;fixedSize=1;" parent="1" vertex="1">
          <mxGeometry x="10" y="600" width="120" height="80" as="geometry" />
        </mxCell>
        <mxCell id="rwV26TxV25w9a_nrWC0s-2" style="edgeStyle=orthogonalEdgeStyle;rounded=0;orthogonalLoop=1;jettySize=auto;html=1;entryX=-0.002;entryY=0.438;entryDx=0;entryDy=0;entryPerimeter=0;shape=flexArrow;strokeWidth=1;sketch=1;curveFitting=1;jiggle=2;" parent="1" source="rwV26TxV25w9a_nrWC0s-1" edge="1">
          <mxGeometry relative="1" as="geometry">
            <mxPoint x="198.72000000000003" y="640.3199999999999" as="targetPoint" />
          </mxGeometry>
        </mxCell>
        <mxCell id="rwV26TxV25w9a_nrWC0s-3" value="&lt;b&gt;memtable&lt;/b&gt;" style="shape=internalStorage;whiteSpace=wrap;html=1;backgroundOutline=1;labelPosition=center;verticalLabelPosition=bottom;align=center;verticalAlign=top;rounded=1;" parent="1" vertex="1">
          <mxGeometry x="360" y="380" width="80" height="70" as="geometry" />
        </mxCell>
        <mxCell id="rwV26TxV25w9a_nrWC0s-4" style="edgeStyle=orthogonalEdgeStyle;rounded=0;orthogonalLoop=1;jettySize=auto;html=1;entryX=0;entryY=0.5;entryDx=0;entryDy=0;" parent="1" source="rwV26TxV25w9a_nrWC0s-8" target="rwV26TxV25w9a_nrWC0s-3" edge="1">
          <mxGeometry relative="1" as="geometry" />
        </mxCell>
        <mxCell id="rwV26TxV25w9a_nrWC0s-5" value="" style="shape=internalStorage;whiteSpace=wrap;html=1;backgroundOutline=1;dx=60;dy=20;rounded=1;glass=0;shadow=1;" parent="1" vertex="1">
          <mxGeometry x="520" y="490" width="80" height="80" as="geometry" />
        </mxCell>
        <mxCell id="rwV26TxV25w9a_nrWC0s-6" style="edgeStyle=orthogonalEdgeStyle;rounded=0;orthogonalLoop=1;jettySize=auto;html=1;entryX=0;entryY=0.5;entryDx=0;entryDy=0;" parent="1" source="rwV26TxV25w9a_nrWC0s-8" target="rwV26TxV25w9a_nrWC0s-11" edge="1">
          <mxGeometry relative="1" as="geometry" />
        </mxCell>
        <mxCell id="rwV26TxV25w9a_nrWC0s-7" style="edgeStyle=orthogonalEdgeStyle;rounded=0;orthogonalLoop=1;jettySize=auto;html=1;entryX=0;entryY=0.5;entryDx=0;entryDy=0;" parent="1" source="rwV26TxV25w9a_nrWC0s-8" target="rwV26TxV25w9a_nrWC0s-16" edge="1">
          <mxGeometry relative="1" as="geometry">
            <mxPoint x="400" y="675" as="targetPoint" />
          </mxGeometry>
        </mxCell>
        <mxCell id="rwV26TxV25w9a_nrWC0s-8" value="" style="rhombus;whiteSpace=wrap;html=1;strokeWidth=2;fillWeight=-1;hachureGap=8;fillStyle=cross-hatch;fillColor=#006600;sketch=1;" parent="1" vertex="1">
          <mxGeometry x="200" y="620" width="40" height="40" as="geometry" />
        </mxCell>
        <mxCell id="rwV26TxV25w9a_nrWC0s-9" value="" style="shape=internalStorage;whiteSpace=wrap;html=1;backgroundOutline=1;dx=60;dy=20;rounded=1;glass=0;shadow=1;" parent="1" vertex="1">
          <mxGeometry x="480" y="490" width="80" height="80" as="geometry" />
        </mxCell>
        <mxCell id="rwV26TxV25w9a_nrWC0s-10" value="" style="shape=internalStorage;whiteSpace=wrap;html=1;backgroundOutline=1;dx=60;dy=20;rounded=1;glass=0;shadow=1;" parent="1" vertex="1">
          <mxGeometry x="440" y="490" width="80" height="80" as="geometry" />
        </mxCell>
        <mxCell id="rwV26TxV25w9a_nrWC0s-11" value="" style="shape=internalStorage;whiteSpace=wrap;html=1;backgroundOutline=1;dx=60;dy=20;rounded=1;glass=0;shadow=1;" parent="1" vertex="1">
          <mxGeometry x="400" y="490" width="80" height="80" as="geometry" />
        </mxCell>
        <mxCell id="rwV26TxV25w9a_nrWC0s-12" value="immutable memtables" style="text;html=1;strokeColor=none;fillColor=none;align=center;verticalAlign=middle;whiteSpace=wrap;rounded=0;fontStyle=1" parent="1" vertex="1">
          <mxGeometry x="480" y="580" width="60" height="30" as="geometry" />
        </mxCell>
        <mxCell id="rwV26TxV25w9a_nrWC0s-13" value="This memtables are ready to be flushed to disk but are still waiting.&lt;br&gt;Changes are no longer applied to them" style="text;html=1;strokeColor=none;fillColor=none;align=center;verticalAlign=middle;whiteSpace=wrap;rounded=0;fontColor=#FFFF00;fontStyle=2" parent="1" vertex="1">
          <mxGeometry x="610" y="490" width="170" height="90" as="geometry" />
        </mxCell>
        <mxCell id="rwV26TxV25w9a_nrWC0s-14" style="edgeStyle=orthogonalEdgeStyle;rounded=0;orthogonalLoop=1;jettySize=auto;html=1;entryX=0;entryY=0.5;entryDx=0;entryDy=0;" parent="1" source="rwV26TxV25w9a_nrWC0s-16" target="rwV26TxV25w9a_nrWC0s-18" edge="1">
          <mxGeometry relative="1" as="geometry" />
        </mxCell>
        <mxCell id="rwV26TxV25w9a_nrWC0s-15" style="edgeStyle=orthogonalEdgeStyle;rounded=0;orthogonalLoop=1;jettySize=auto;html=1;entryX=0;entryY=0.5;entryDx=0;entryDy=0;" parent="1" source="rwV26TxV25w9a_nrWC0s-16" target="rwV26TxV25w9a_nrWC0s-25" edge="1">
          <mxGeometry relative="1" as="geometry" />
        </mxCell>
        <mxCell id="rwV26TxV25w9a_nrWC0s-16" value="SSTABLE" style="ellipse;whiteSpace=wrap;html=1;aspect=fixed;" parent="1" vertex="1">
          <mxGeometry x="360" y="635" width="80" height="80" as="geometry" />
        </mxCell>
        <mxCell id="rwV26TxV25w9a_nrWC0s-17" value="&lt;b&gt;SSTABLE L0&lt;br&gt;&lt;/b&gt;" style="swimlane;fontStyle=0;childLayout=stackLayout;horizontal=1;startSize=30;horizontalStack=0;resizeParent=1;resizeParentMax=0;resizeLast=0;collapsible=1;marginBottom=0;whiteSpace=wrap;html=1;" parent="1" vertex="1">
          <mxGeometry x="510" y="630" width="140" height="150" as="geometry" />
        </mxCell>
        <mxCell id="rwV26TxV25w9a_nrWC0s-18" value="Bloom Filter" style="text;strokeColor=none;fillColor=none;align=left;verticalAlign=middle;spacingLeft=4;spacingRight=4;overflow=hidden;points=[[0,0.5],[1,0.5]];portConstraint=eastwest;rotatable=0;whiteSpace=wrap;html=1;" parent="rwV26TxV25w9a_nrWC0s-17" vertex="1">
          <mxGeometry y="30" width="140" height="30" as="geometry" />
        </mxCell>
        <mxCell id="rwV26TxV25w9a_nrWC0s-19" value="Sparse Index" style="text;strokeColor=none;fillColor=none;align=left;verticalAlign=middle;spacingLeft=4;spacingRight=4;overflow=hidden;points=[[0,0.5],[1,0.5]];portConstraint=eastwest;rotatable=0;whiteSpace=wrap;html=1;" parent="rwV26TxV25w9a_nrWC0s-17" vertex="1">
          <mxGeometry y="60" width="140" height="30" as="geometry" />
        </mxCell>
        <mxCell id="rwV26TxV25w9a_nrWC0s-20" value="File" style="text;strokeColor=none;fillColor=none;align=left;verticalAlign=middle;spacingLeft=4;spacingRight=4;overflow=hidden;points=[[0,0.5],[1,0.5]];portConstraint=eastwest;rotatable=0;whiteSpace=wrap;html=1;" parent="rwV26TxV25w9a_nrWC0s-17" vertex="1">
          <mxGeometry y="90" width="140" height="30" as="geometry" />
        </mxCell>
        <mxCell id="rwV26TxV25w9a_nrWC0s-21" value="block cache" style="text;strokeColor=none;fillColor=none;align=left;verticalAlign=middle;spacingLeft=4;spacingRight=4;overflow=hidden;points=[[0,0.5],[1,0.5]];portConstraint=eastwest;rotatable=0;whiteSpace=wrap;html=1;" parent="rwV26TxV25w9a_nrWC0s-17" vertex="1">
          <mxGeometry y="120" width="140" height="30" as="geometry" />
        </mxCell>
        <mxCell id="rwV26TxV25w9a_nrWC0s-22" value="This is the level 0 which maybe cached in the memory unlike the other levels" style="text;html=1;strokeColor=none;fillColor=none;align=center;verticalAlign=middle;whiteSpace=wrap;rounded=0;fontColor=#FFFF00;fontStyle=2" parent="1" vertex="1">
          <mxGeometry x="670" y="630" width="170" height="90" as="geometry" />
        </mxCell>
        <mxCell id="rwV26TxV25w9a_nrWC0s-23" value="&lt;b&gt;SSTABLE N-th&lt;br&gt;&lt;/b&gt;" style="swimlane;fontStyle=0;childLayout=stackLayout;horizontal=1;startSize=30;horizontalStack=0;resizeParent=1;resizeParentMax=0;resizeLast=0;collapsible=1;marginBottom=0;whiteSpace=wrap;html=1;" parent="1" vertex="1">
          <mxGeometry x="510" y="800" width="140" height="150" as="geometry" />
        </mxCell>
        <mxCell id="rwV26TxV25w9a_nrWC0s-24" value="Bloom Filter" style="text;strokeColor=none;fillColor=none;align=left;verticalAlign=middle;spacingLeft=4;spacingRight=4;overflow=hidden;points=[[0,0.5],[1,0.5]];portConstraint=eastwest;rotatable=0;whiteSpace=wrap;html=1;" parent="rwV26TxV25w9a_nrWC0s-23" vertex="1">
          <mxGeometry y="30" width="140" height="30" as="geometry" />
        </mxCell>
        <mxCell id="rwV26TxV25w9a_nrWC0s-25" value="Sparse Index" style="text;strokeColor=none;fillColor=none;align=left;verticalAlign=middle;spacingLeft=4;spacingRight=4;overflow=hidden;points=[[0,0.5],[1,0.5]];portConstraint=eastwest;rotatable=0;whiteSpace=wrap;html=1;" parent="rwV26TxV25w9a_nrWC0s-23" vertex="1">
          <mxGeometry y="60" width="140" height="30" as="geometry" />
        </mxCell>
        <mxCell id="rwV26TxV25w9a_nrWC0s-26" value="File" style="text;strokeColor=none;fillColor=none;align=left;verticalAlign=middle;spacingLeft=4;spacingRight=4;overflow=hidden;points=[[0,0.5],[1,0.5]];portConstraint=eastwest;rotatable=0;whiteSpace=wrap;html=1;" parent="rwV26TxV25w9a_nrWC0s-23" vertex="1">
          <mxGeometry y="90" width="140" height="30" as="geometry" />
        </mxCell>
        <mxCell id="rwV26TxV25w9a_nrWC0s-27" value="block cache (-)" style="text;strokeColor=none;fillColor=none;align=left;verticalAlign=middle;spacingLeft=4;spacingRight=4;overflow=hidden;points=[[0,0.5],[1,0.5]];portConstraint=eastwest;rotatable=0;whiteSpace=wrap;html=1;" parent="rwV26TxV25w9a_nrWC0s-23" vertex="1">
          <mxGeometry y="120" width="140" height="30" as="geometry" />
        </mxCell>
        <mxCell id="rwV26TxV25w9a_nrWC0s-28" value="" style="whiteSpace=wrap;html=1;shape=mxgraph.basic.document" parent="1" vertex="1">
          <mxGeometry x="920" y="760" width="100" height="100" as="geometry" />
        </mxCell>
        <mxCell id="rwV26TxV25w9a_nrWC0s-29" value="" style="whiteSpace=wrap;html=1;shape=mxgraph.basic.document" parent="1" vertex="1">
          <mxGeometry x="930" y="760" width="60" height="100" as="geometry" />
        </mxCell>
        <mxCell id="rwV26TxV25w9a_nrWC0s-30" value="" style="whiteSpace=wrap;html=1;shape=mxgraph.basic.document" parent="1" vertex="1">
          <mxGeometry x="860" y="760" width="100" height="100" as="geometry" />
        </mxCell>
        <mxCell id="rwV26TxV25w9a_nrWC0s-31" value="" style="whiteSpace=wrap;html=1;shape=mxgraph.basic.document" parent="1" vertex="1">
          <mxGeometry x="830" y="760" width="100" height="100" as="geometry" />
        </mxCell>
        <mxCell id="rwV26TxV25w9a_nrWC0s-32" style="edgeStyle=orthogonalEdgeStyle;rounded=0;orthogonalLoop=1;jettySize=auto;html=1;entryX=0;entryY=0.5;entryDx=0;entryDy=0;entryPerimeter=0;" parent="1" source="rwV26TxV25w9a_nrWC0s-20" target="rwV26TxV25w9a_nrWC0s-31" edge="1">
          <mxGeometry relative="1" as="geometry" />
        </mxCell>
        <mxCell id="rwV26TxV25w9a_nrWC0s-33" value="&lt;b&gt;IF NOT FOUD IN CACHE&lt;/b&gt;" style="edgeLabel;html=1;align=center;verticalAlign=middle;resizable=0;points=[];" parent="rwV26TxV25w9a_nrWC0s-32" vertex="1" connectable="0">
          <mxGeometry x="-0.4824" relative="1" as="geometry">
            <mxPoint as="offset" />
          </mxGeometry>
        </mxCell>
        <mxCell id="rwV26TxV25w9a_nrWC0s-34" style="edgeStyle=orthogonalEdgeStyle;rounded=0;orthogonalLoop=1;jettySize=auto;html=1;entryX=0;entryY=0.5;entryDx=0;entryDy=0;entryPerimeter=0;" parent="1" source="rwV26TxV25w9a_nrWC0s-26" target="rwV26TxV25w9a_nrWC0s-31" edge="1">
          <mxGeometry relative="1" as="geometry" />
        </mxCell>
        <mxCell id="rwV26TxV25w9a_nrWC0s-35" value="&lt;b&gt;DBFiles on the disk&lt;/b&gt;" style="text;html=1;strokeColor=none;fillColor=none;align=center;verticalAlign=middle;whiteSpace=wrap;rounded=0;" parent="1" vertex="1">
          <mxGeometry x="870" y="870" width="120" height="30" as="geometry" />
        </mxCell>
        <mxCell id="rwV26TxV25w9a_nrWC0s-36" value="" style="curved=1;endArrow=classic;html=1;rounded=0;" parent="1" edge="1">
          <mxGeometry width="50" height="50" relative="1" as="geometry">
            <mxPoint x="1010" y="800" as="sourcePoint" />
            <mxPoint x="1060" y="750" as="targetPoint" />
            <Array as="points">
              <mxPoint x="1060" y="800" />
              <mxPoint x="1010" y="750" />
            </Array>
          </mxGeometry>
        </mxCell>
        <mxCell id="rwV26TxV25w9a_nrWC0s-37" value="" style="rounded=0;whiteSpace=wrap;html=1;" parent="1" vertex="1">
          <mxGeometry x="1060" y="720" width="490" height="60" as="geometry" />
        </mxCell>
        <mxCell id="rwV26TxV25w9a_nrWC0s-38" value="bloom" style="text;html=1;strokeColor=none;fillColor=none;align=center;verticalAlign=middle;whiteSpace=wrap;rounded=0;" parent="1" vertex="1">
          <mxGeometry x="1060" y="735" width="60" height="30" as="geometry" />
        </mxCell>
        <mxCell id="rwV26TxV25w9a_nrWC0s-39" value="" style="rounded=1;whiteSpace=wrap;html=1;" parent="1" vertex="1">
          <mxGeometry x="1420" y="580" width="120" height="60" as="geometry" />
        </mxCell>
        <mxCell id="rwV26TxV25w9a_nrWC0s-40" value="" style="endArrow=none;dashed=1;html=1;dashPattern=1 3;strokeWidth=2;rounded=0;" parent="1" edge="1">
          <mxGeometry width="50" height="50" relative="1" as="geometry">
            <mxPoint x="1120" y="790" as="sourcePoint" />
            <mxPoint x="1120" y="710" as="targetPoint" />
          </mxGeometry>
        </mxCell>
        <mxCell id="rwV26TxV25w9a_nrWC0s-41" value="sparse" style="text;html=1;strokeColor=none;fillColor=none;align=center;verticalAlign=middle;whiteSpace=wrap;rounded=0;" parent="1" vertex="1">
          <mxGeometry x="1120" y="735" width="60" height="30" as="geometry" />
        </mxCell>
        <mxCell id="rwV26TxV25w9a_nrWC0s-42" value="" style="rounded=1;whiteSpace=wrap;html=1;" parent="1" vertex="1">
          <mxGeometry x="1370" y="580" width="120" height="60" as="geometry" />
        </mxCell>
        <mxCell id="rwV26TxV25w9a_nrWC0s-43" value="" style="endArrow=none;dashed=1;html=1;dashPattern=1 3;strokeWidth=2;rounded=0;" parent="1" edge="1">
          <mxGeometry width="50" height="50" relative="1" as="geometry">
            <mxPoint x="1180" y="790" as="sourcePoint" />
            <mxPoint x="1180" y="710" as="targetPoint" />
          </mxGeometry>
        </mxCell>
        <mxCell id="rwV26TxV25w9a_nrWC0s-44" value="" style="rounded=1;whiteSpace=wrap;html=1;" parent="1" vertex="1">
          <mxGeometry x="1320" y="580" width="120" height="60" as="geometry" />
        </mxCell>
        <mxCell id="rwV26TxV25w9a_nrWC0s-45" value="DATA BLOCKS" style="text;html=1;strokeColor=none;fillColor=none;align=center;verticalAlign=middle;whiteSpace=wrap;rounded=0;" parent="1" vertex="1">
          <mxGeometry x="1300" y="735" width="110" height="30" as="geometry" />
        </mxCell>
        <mxCell id="rwV26TxV25w9a_nrWC0s-46" value="" style="curved=1;endArrow=classic;html=1;rounded=0;" parent="1" edge="1">
          <mxGeometry width="50" height="50" relative="1" as="geometry">
            <mxPoint x="1270" y="735" as="sourcePoint" />
            <mxPoint x="1270" y="640" as="targetPoint" />
            <Array as="points">
              <mxPoint x="1320" y="735" />
              <mxPoint x="1270" y="685" />
            </Array>
          </mxGeometry>
        </mxCell>
        <mxCell id="rwV26TxV25w9a_nrWC0s-47" value="" style="rounded=1;whiteSpace=wrap;html=1;" parent="1" vertex="1">
          <mxGeometry x="1150" y="580" width="240" height="60" as="geometry" />
        </mxCell>
        <mxCell id="rwV26TxV25w9a_nrWC0s-48" value="keyLen" style="text;html=1;strokeColor=none;fillColor=none;align=center;verticalAlign=middle;whiteSpace=wrap;rounded=0;" parent="1" vertex="1">
          <mxGeometry x="1150" y="595" width="60" height="30" as="geometry" />
        </mxCell>
        <mxCell id="rwV26TxV25w9a_nrWC0s-49" value="key" style="text;html=1;strokeColor=none;fillColor=none;align=center;verticalAlign=middle;whiteSpace=wrap;rounded=0;" parent="1" vertex="1">
          <mxGeometry x="1200" y="595" width="60" height="30" as="geometry" />
        </mxCell>
        <mxCell id="rwV26TxV25w9a_nrWC0s-50" value="valueLen" style="text;html=1;strokeColor=none;fillColor=none;align=center;verticalAlign=middle;whiteSpace=wrap;rounded=0;" parent="1" vertex="1">
          <mxGeometry x="1260" y="595" width="60" height="30" as="geometry" />
        </mxCell>
        <mxCell id="rwV26TxV25w9a_nrWC0s-51" value="value" style="text;html=1;strokeColor=none;fillColor=none;align=center;verticalAlign=middle;whiteSpace=wrap;rounded=0;" parent="1" vertex="1">
          <mxGeometry x="1320" y="595" width="60" height="30" as="geometry" />
        </mxCell>
      </root>
    </mxGraphModel>
  </diagram>
</mxfile>
